<svg aria-labelledby="routes-icon-title" fill="none" height="30" role="img" viewBox="0 0 30 30" width="30" xmlns="http://www.w3.org/2000/svg">
    <title id="routes-icon-title">An icon of a globe</title>
    <defs>
        <linearGradient gradientUnits="userSpaceOnUse" id="icon-gradient-fill" x1="4" x2="40" y1="4" y2="24">
            <stop stop-color="white" stop-opacity="0.2"></stop>
            <stop offset="0" stop-color="white" stop-opacity="0.4"></stop>
            <stop offset="0.5" stop-color="white"></stop>
            <stop offset="0.75" stop-color="white" stop-opacity="0.4"></stop>
            <stop offset="1" stop-color="white" stop-opacity="0"></stop>
        </linearGradient>
    </defs>
    <path d="M15 26.25C17.4937 26.2499 19.9168 25.4215 21.8888 23.895C23.8607 22.3685 25.2699 20.2304 25.895 17.8163M15 26.25C12.5063 26.2499 10.0832 25.4215 8.11121 23.895C6.13925 22.3685 4.73009 20.2304 4.105 17.8163M15 26.25C18.1062 26.25 20.625 21.2125 20.625 15C20.625 8.7875 18.1062 3.75 15 3.75M15 26.25C11.8937 26.25 9.375 21.2125 9.375 15C9.375 8.7875 11.8937 3.75 15 3.75M15 3.75C16.9953 3.74917 18.9549 4.2792 20.6777 5.28571C22.4006 6.29221 23.8246 7.73896 24.8037 9.4775M15 3.75C13.0047 3.74917 11.0451 4.2792 9.32226 5.28571C7.59942 6.29221 6.17538 7.73896 5.19625 9.4775M24.8037 9.4775C22.0821 11.8349 18.6007 13.1302 15 13.125C11.2525 13.125 7.825 11.75 5.19625 9.4775M24.8037 9.4775C25.7548 11.1625 26.2531 13.0651 26.25 15C26.25 15.9725 26.1262 16.9163 25.895 17.8163M25.895 17.8163C22.5615 19.6642 18.8115 20.631 15 20.625C11.0475 20.625 7.33375 19.6063 4.105 17.8163M4.105 17.8163C3.86843 16.8962 3.74915 15.95 3.75 15C3.75 12.9938 4.275 11.1088 5.19625 9.4775" stroke="url(#icon-gradient-fill)" stroke-linecap="round" stroke-linejoin="round" stroke-width="1.5"></path>
</svg>